# xmcd
#
# Track frame offsets: 
#        182
#        8302
#        21185
#        32502
#        55720
#        71767
#        92355
#        104857
#        123852
#        137235
#        148515
#
# Disc length: 2192 seconds
#
# Revision: 25
# Processed by: cddbd v1.5.2PL0 Copyright (c) Steve Scherf et al.
# Submitted via: ExactAudioCopy v0.99pb4
#
DISCID=8a088e0b
DTITLE=Toadies - Rubberneck
DYEAR=1994
DGENRE=Hard Rock
TTITLE0=Mexican Hairless
TTITLE1=Mister Love
TTITLE2=Backslider
TTITLE3=Possum Kingdom
TTITLE4=Quitter
TTITLE5=Away
TTITLE6=I Come From The Water
TTITLE7=Tyler
TTITLE8=Happyface
TTITLE9=Velvet
TTITLE10=I Burn
EXTD=Interscope Records YEAR: 1995
EXTT0=
EXTT1=
EXTT2=
EXTT3=
EXTT4=
EXTT5=
EXTT6=
EXTT7=
EXTT8=
EXTT9=
EXTT10=
PLAYORDER=
